HIERARCHY
ROOT hip
{
  OFFSET 0 0 0
  CHANNELS 6 Xposition Yposition Zposition Zrotation Yrotation Xrotation
  JOINT abdomen
  {
    OFFSET 0 20.6881 -0.73152
    CHANNELS 3 Zrotation Xrotation Yrotation
    JOINT chest
    {
      OFFSET 0 11.7043 -0.48768
      CHANNELS 3 Zrotation Xrotation Yrotation
      JOINT neck
      {
        OFFSET 0 22.1894 -2.19456
        CHANNELS 3 Zrotation Xrotation Yrotation
        JOINT head
        {
          OFFSET -0.24384 7.07133 1.2192
          CHANNELS 3 Zrotation Xrotation Yrotation
          JOINT leftEye
          {
            OFFSET 4.14528 8.04674 8.04672
            CHANNELS 3 Zrotation Xrotation Yrotation
            End Site
            {
              OFFSET 1 0 0
            }
          }
          JOINT rightEye
          {
            OFFSET -3.6576 8.04674 8.04672
            CHANNELS 3 Zrotation Xrotation Yrotation
            End Site
            {
              OFFSET 1 0 0
            }
          }
        }
      }
      JOINT rCollar
      {
        OFFSET -2.68224 19.2634 -4.8768
        CHANNELS 3 Zrotation Xrotation Yrotation
        JOINT rShldr
        {
          OFFSET -8.77824 -1.95073 1.46304
          CHANNELS 3 Zrotation Xrotation Yrotation
          JOINT rForeArm
          {
            OFFSET -28.1742 -1.7115 0.48768
            CHANNELS 3 Zrotation Xrotation Yrotation
            JOINT rHand
            {
              OFFSET -22.5879 0.773209 7.07136
              CHANNELS 3 Zrotation Xrotation Yrotation
              JOINT rThumb1
              {
                OFFSET -1.2192 -0.487915 3.41376
                CHANNELS 3 Zrotation Xrotation Yrotation
                JOINT rThumb2
                {
                  OFFSET -3.37035 -0.52449 3.41376
                  CHANNELS 3 Zrotation Xrotation Yrotation
                  End Site
                  {
                    OFFSET -1.78271 -1.18214 1.43049
                  }
                }
              }
              JOINT rIndex1
              {
                OFFSET -7.75947 0.938293 5.60832
                CHANNELS 3 Zrotation Xrotation Yrotation
                JOINT rIndex2
                {
                  OFFSET -2.54057 -0.884171 1.56538
                  CHANNELS 3 Zrotation Xrotation Yrotation
                  End Site
                  {
                    OFFSET -1.62519 -0.234802 1.16502
                  }
                }
              }
              JOINT rMid1
              {
                OFFSET -8.24714 1.18213 3.41376
                CHANNELS 3 Zrotation Xrotation Yrotation
                JOINT rMid2
                {
                  OFFSET -3.10165 -0.590103 1.0647
                  CHANNELS 3 Zrotation Xrotation Yrotation
                  End Site
                  {
                    OFFSET -2.48547 -0.328903 0.83742
                  }
                }
              }
              JOINT rRing1
              {
                OFFSET -8.82822 0.546677 1.51678
                CHANNELS 3 Zrotation Xrotation Yrotation
                JOINT rRing2
                {
                  OFFSET -2.60934 -0.819778 -0.0198488
                  CHANNELS 3 Zrotation Xrotation Yrotation
                  End Site
                  {
                    OFFSET -2.33842 -0.294052 0.168128
                  }
                }
              }
              JOINT rPinky1
              {
                OFFSET -8.27202 -0.0477905 -0.4584
                CHANNELS 3 Zrotation Xrotation Yrotation
                JOINT rPinky2
                {
                  OFFSET -1.82734 -0.647385 -0.700984
                  CHANNELS 3 Zrotation Xrotation Yrotation
                  End Site
                  {
                    OFFSET -1.69225 -0.51767 -0.607171
                  }
                }
              }
            }
          }
        }
      }
      JOINT lCollar
      {
        OFFSET 2.68224 19.2634 -4.8768
        CHANNELS 3 Zrotation Xrotation Yrotation
        JOINT lShldr
        {
          OFFSET 8.77824 -1.95073 1.46304
          CHANNELS 3 Zrotation Xrotation Yrotation
          JOINT lForeArm
          {
            OFFSET 28.1742 -1.7115 0.48768
            CHANNELS 3 Zrotation Xrotation Yrotation
            JOINT lHand
            {
              OFFSET 22.5879 0.773209 7.07136
              CHANNELS 3 Zrotation Xrotation Yrotation
              JOINT lThumb1
              {
                OFFSET 1.2192 -0.487915 3.41376
                CHANNELS 3 Zrotation Xrotation Yrotation
                JOINT lThumb2
                {
                  OFFSET 3.37035 -0.52449 3.41376
                  CHANNELS 3 Zrotation Xrotation Yrotation
                  End Site
                  {
                    OFFSET 1.78271 -1.18214 1.43049
                  }
                }
              }
              JOINT lIndex1
              {
                OFFSET 7.75947 0.938293 5.60832
                CHANNELS 3 Zrotation Xrotation Yrotation
                JOINT lIndex2
                {
                  OFFSET 2.54057 -0.884171 1.56538
                  CHANNELS 3 Zrotation Xrotation Yrotation
                  End Site
                  {
                    OFFSET 1.62519 -0.234802 1.16502
                  }
                }
              }
              JOINT lMid1
              {
                OFFSET 8.24714 1.18213 3.41376
                CHANNELS 3 Zrotation Xrotation Yrotation
                JOINT lMid2
                {
                  OFFSET 3.10165 -0.590103 1.0647
                  CHANNELS 3 Zrotation Xrotation Yrotation
                  End Site
                  {
                    OFFSET 2.48547 -0.328903 0.83742
                  }
                }
              }
              JOINT lRing1
              {
                OFFSET 8.82822 0.546677 1.51678
                CHANNELS 3 Zrotation Xrotation Yrotation
                JOINT lRing2
                {
                  OFFSET 2.60934 -0.819778 -0.0198488
                  CHANNELS 3 Zrotation Xrotation Yrotation
                  End Site
                  {
                    OFFSET 2.33842 -0.294052 0.168128
                  }
                }
              }
              JOINT lPinky1
              {
                OFFSET 8.27202 -0.0477905 -0.4584
                CHANNELS 3 Zrotation Xrotation Yrotation
                JOINT lPinky2
                {
                  OFFSET 1.82734 -0.647385 -0.700984
                  CHANNELS 3 Zrotation Xrotation Yrotation
                  End Site
                  {
                    OFFSET 1.69225 -0.51767 -0.607171
                  }
                }
              }
            }
          }
        }
      }
    }
  }
  JOINT rButtock
  {
    OFFSET -8.77824 4.35084 1.2192
    CHANNELS 3 Zrotation Xrotation Yrotation
    JOINT rThigh
    {
      OFFSET 0 -1.70687 -2.19456
      CHANNELS 3 Zrotation Xrotation Yrotation
      JOINT rShin
      {
        OFFSET 0 -36.8199 0.73152
        CHANNELS 3 Zrotation Xrotation Yrotation
        JOINT rFoot
        {
          OFFSET 0.73152 -45.1104 -5.12064
          CHANNELS 3 Zrotation Xrotation Yrotation
          End Site
          {
            OFFSET -1.1221 -3.69964 12.103
          }
        }
      }
    }
  }
  JOINT lButtock
  {
    OFFSET 8.77824 4.35084 1.2192
    CHANNELS 3 Zrotation Xrotation Yrotation
    JOINT lThigh
    {
      OFFSET 0 -1.70687 -2.19456
      CHANNELS 3 Zrotation Xrotation Yrotation
      JOINT lShin
      {
        OFFSET 0 -36.8199 0.73152
        CHANNELS 3 Zrotation Xrotation Yrotation
        JOINT lFoot
        {
          OFFSET -0.73152 -45.1104 -5.12064
          CHANNELS 3 Zrotation Xrotation Yrotation
          End Site
          {
            OFFSET 1.1221 -3.69964 12.103
          }
        }
      }
    }
  }
}
MOTION
Frames:	7
Frame Time:	0.00833333
0.27229 85.1847 -170.978 0.0 0.0 0.0 0.551263 -0.00551323 0.0158547 0.152486 -0.0089295 0.0264262 1.83045e-14 1.59028e-15 -8.07563e-17 5.50199e-14 9.54166e-15 -2.18974e-16 -0.0 0.0 0.0 -0.0 0.0 0.0 9.19269e-15 -1.28123e-17 9.93923e-17 1.93249e-13 -1.11816e-16 3.97569e-16 3.31185e-12 -9.90743e-13 -5.725e-14 3.78611e-11 9.79412e-13 -8.5875e-14 8.93163e-11 -2.44879e-14 -3.11694e-13 1.54228e-10 -4.45278e-14 -5.51031e-13 8.93191e-11 -2.70347e-14 -3.24417e-13 7.73091 5.47488 0.417314 8.93142e-11 -2.5345e-14 -3.14875e-13 2.90554 0.965183 0.102902 8.93192e-11 -2.51463e-14 -3.14875e-13 10.2786 0.731801 0.0259123 8.93082e-11 -1.94809e-14 -3.05333e-13 2.22167 -0.733487 -0.20892 8.9967e-15 -1.28123e-17 -9.93923e-17 1.91313e-13 -2.36057e-16 -1.19271e-15 3.30365e-12 9.87562e-13 -3.49861e-14 3.78659e-11 -1.00391e-12 -9.22361e-14 8.93138e-11 -3.43324e-14 -3.08514e-13 1.54255e-10 -6.04305e-14 -5.35923e-13 8.93112e-11 -3.65764e-14 -3.08514e-13 -7.73091 5.47488 -0.417314 8.93143e-11 -3.48867e-14 -3.08514e-13 -2.90554 0.965183 -0.102902 8.931e-11 -3.38928e-14 -3.09309e-13 -10.2786 0.731801 -0.0259123 8.93207e-11 -3.06128e-14 -3.18055e-13 -2.22167 -0.733487 0.20892 -2.03217e-16 0.0 -3.88251e-19 0.853244 -4.54903 -0.0750205 -0.00159939 2.69016 -0.0049818 -0.439331 1.86047 0.0870213 2.03217e-16 0.0 3.88251e-19 -0.00930562 -2.38107 0.0214441 0.00752331 -1.23662 0.0645199 0.426268 3.61923 -0.120141
1.26838 84.101 -171.321 4.2299 -2.7571 2.372 -1.94275 2.66355 -0.521161 2.07781 -3.45114 0.0272658 -0.847874 2.08949 -1.46865 1.48298 -2.53513 -2.68368 -0.0 0.0 0.0 -0.0 0.0 0.0 2.87446e-14 3.5262e-15 -1.15753e-14 21.7941 6.72124 -3.49889 -3.39464 -1.40805 5.43926 0.0173285 2.93959 0.411219 -1.09021e-10 1.11679e-10 -2.51043e-10 -1.90764e-10 1.93817e-10 -4.32246e-10 -1.09019e-10 1.11678e-10 -2.51056e-10 7.73091 5.47488 0.417314 -1.09024e-10 1.11679e-10 -2.51048e-10 2.90554 0.965183 0.102902 -1.09018e-10 1.11679e-10 -2.51049e-10 10.2786 0.731801 0.0259123 -1.09029e-10 1.11684e-10 -2.51039e-10 2.22167 -0.733487 -0.20892 2.86377e-14 3.52949e-15 -1.17683e-14 -22.7351 6.74315 0.800443 2.48793 -0.920592 -4.08406 -0.00330028 1.27564 -0.17912 -1.80999e-10 -4.5026e-11 -1.81598e-10 -3.13804e-10 -7.74475e-11 -3.12964e-10 -1.81002e-10 -4.50275e-11 -1.81594e-10 -7.73091 5.47488 -0.417314 -1.80996e-10 -4.50263e-11 -1.81599e-10 -2.90554 0.965183 -0.102902 -1.81003e-10 -4.50247e-11 -1.81597e-10 -10.2786 0.731801 -0.0259123 -1.80993e-10 -4.50219e-11 -1.81606e-10 -2.22167 -0.733487 0.20892 -2.03217e-16 0.0 -3.88251e-19 -2.70242 -13.1585 6.31828 -0.00020423 9.27598 0.114452 -0.882806 -2.18517 -3.90741 2.03217e-16 0.0 3.88251e-19 -3.70232 -0.764596 -4.00901 -0.0197884 2.1485 -0.0691272 0.646723 -1.06147 3.69619
1.17458 84.1778 -171.251 4.2739 -1.8949 2.6746 -4.52133 5.48979 -1.08951 4.11562 -7.09314 0.0296342 -1.62843 4.29303 -3.02869 2.79118 -5.19181 -5.5402 -0.0 0.0 0.0 -0.0 0.0 0.0 5.15154e-14 7.89917e-15 -2.59973e-14 45.7449 13.7593 -7.35764 -6.70532 -2.86113 11.2182 -0.010492 6.00807 0.844165 -3.10884e-10 2.30731e-10 -5.48213e-10 -5.42285e-10 4.00524e-10 -9.44241e-10 -3.10882e-10 2.30733e-10 -5.48225e-10 7.73091 5.47488 0.417314 -3.10887e-10 2.30733e-10 -5.48221e-10 2.90554 0.965183 0.102902 -3.1088e-10 2.30733e-10 -5.48221e-10 10.2786 0.731801 0.0259123 -3.10891e-10 2.30736e-10 -5.48212e-10 2.22167 -0.733487 -0.20892 5.15081e-14 7.90622e-15 -2.61806e-14 -46.9827 13.8674 1.68959 4.97503 -1.87785 -8.40375 0.0019056 2.63073 -0.369697 -4.88747e-10 -8.8152e-11 -3.64516e-10 -8.46585e-10 -1.51504e-10 -6.28018e-10 -4.88752e-10 -8.81526e-11 -3.64507e-10 -7.73091 5.47488 -0.417314 -4.88742e-10 -8.8152e-11 -3.64518e-10 -2.90554 0.965183 -0.102902 -4.88752e-10 -8.81497e-11 -3.64512e-10 -10.2786 0.731801 -0.0259123 -4.88742e-10 -8.81472e-11 -3.64521e-10 -2.22167 -0.733487 0.20892 -2.03217e-16 0.0 -3.88251e-19 -4.23743 -21.8354 13.7322 -0.0298671 16.2483 0.247148 -1.96351 -6.40983 -8.16196 2.03217e-16 0.0 3.88251e-19 -7.36354 0.894525 -8.27125 -0.0314251 5.77322 -0.211589 1.56203 -5.96957 7.77837
1.21294 84.2287 -170.523 4.2947 -2.0046 2.5245 -6.77945 7.9989 -1.60916 5.9288 -10.3356 0.0292718 -2.22098 6.25194 -4.42941 3.73381 -7.5384 -8.11376 -0.0 0.0 0.0 -0.0 0.0 0.0 6.78485e-14 1.06042e-14 -3.49248e-14 67.9612 19.8534 -11.0913 -9.39223 -4.07212 16.3553 -0.0758797 8.81696 1.24677 -5.05696e-10 3.35086e-10 -7.52506e-10 -8.80748e-10 5.8154e-10 -1.29564e-09 -5.05694e-10 3.35089e-10 -7.52518e-10 7.73091 5.47488 0.417314 -5.057e-10 3.35088e-10 -7.52515e-10 2.90554 0.965183 0.102902 -5.05692e-10 3.35089e-10 -7.52516e-10 10.2786 0.731801 0.0259123 -5.05703e-10 3.3509e-10 -7.52508e-10 2.22167 -0.733487 -0.20892 6.79197e-14 1.06141e-14 -3.51061e-14 -68.8018 20.2131 2.54132 7.07302 -2.70571 -12.2645 0.014072 3.82677 -0.538426 -7.21623e-10 -1.35009e-10 -5.44177e-10 -1.24992e-09 -2.32222e-10 -9.37819e-10 -7.21629e-10 -1.35009e-10 -5.44165e-10 -7.73091 5.47488 -0.417314 -7.21617e-10 -1.35009e-10 -5.4418e-10 -2.90554 0.965183 -0.102902 -7.21629e-10 -1.35006e-10 -5.44172e-10 -10.2786 0.731801 -0.0259123 -7.2162e-10 -1.35004e-10 -5.44181e-10 -2.22167 -0.733487 0.20892 -2.03217e-16 0.0 -3.88251e-19 -3.46813 -28.8545 21.3622 -0.0857116 22.4472 0.377415 -3.46988 -10.0687 -12.0764 2.03217e-16 0.0 3.88251e-19 -10.4106 2.40826 -12.0797 -0.0266344 8.91862 -0.340361 2.96747 -10.2242 11.5117
1.00559 84.162 -170.096 4.3703 -2.7934 2.3926 -8.34273 9.71776 -1.99382 7.17936 -12.579 0.0217032 -2.57186 7.61504 -5.40945 4.26668 -9.17347 -9.92062 -0.0 0.0 0.0 -0.0 0.0 0.0 6.80874e-14 9.13944e-15 -3.01159e-14 83.9689 23.8838 -13.9393 -11.084 -4.82667 19.8507 -0.150143 10.9784 1.56228 -6.82882e-10 4.02696e-10 -7.24607e-10 -1.18657e-09 6.98329e-10 -1.24553e-09 -6.8288e-10 4.02701e-10 -7.24619e-10 7.73091 5.47488 0.417314 -6.82885e-10 4.02699e-10 -7.24616e-10 2.90554 0.965183 0.102902 -6.82877e-10 4.027e-10 -7.24618e-10 10.2786 0.731801 0.0259123 -6.82888e-10 4.02701e-10 -7.2461e-10 2.22167 -0.733487 -0.20892 6.81839e-14 9.14992e-15 -3.03147e-14 -84.1116 24.6288 3.16468 8.47229 -3.26334 -14.9662 0.0263108 4.62534 -0.651479 -7.67322e-10 -1.91196e-10 -7.15698e-10 -1.32964e-09 -3.29595e-10 -1.23449e-09 -7.67327e-10 -1.91195e-10 -7.15682e-10 -7.73091 5.47488 -0.417314 -7.67314e-10 -1.91195e-10 -7.15701e-10 -2.90554 0.965183 -0.102902 -7.67328e-10 -1.91192e-10 -7.15692e-10 -10.2786 0.731801 -0.0259123 -7.67319e-10 -1.91191e-10 -7.15701e-10 -2.22167 -0.733487 0.20892 -2.03217e-16 0.0 -3.88251e-19 -1.62252 -33.1384 27.4707 -0.1429 26.713 0.4796 -4.84451 -12.5149 -14.9555 2.03217e-16 0.0 3.88251e-19 -12.3749 3.61969 -14.74 -0.0158611 10.8659 -0.430423 4.25541 -13.0498 14.1655
0.913968 84.1461 -169.437 4.4346 -3.5768 2.3169 -8.97425 10.3515 -2.13367 7.5872 -13.4179 0.0106455 -2.64237 8.07665 -5.80612 4.45414 -9.81598 -10.6575 -0.0 0.0 0.0 -0.0 0.0 0.0 4.16473e-14 -2.82674e-16 4.11539e-17 90.3758 25.0892 -15.0767 -11.5942 -5.02654 20.9732 -0.202105 12.3619 1.76656 -8.94022e-10 4.28747e-10 -2.86949e-10 -1.54718e-09 7.4201e-10 -4.86175e-10 -8.94021e-10 4.28752e-10 -2.86962e-10 7.73091 5.47488 0.417314 -8.94023e-10 4.2875e-10 -2.86956e-10 2.90554 0.965183 0.102902 -8.94016e-10 4.28751e-10 -2.8696e-10 10.2786 0.731801 0.0259123 -8.94028e-10 4.28752e-10 -2.86952e-10 2.22167 -0.733487 -0.20892 4.16772e-14 -2.75388e-16 -2.13926e-16 -90.0052 26.4334 3.29293 9.00386 -3.47499 -16.0222 0.0306979 4.84259 -0.682326 -4.95934e-10 -2.83539e-10 -9.41398e-10 -8.61416e-10 -4.9048e-10 -1.62652e-09 -4.95938e-10 -2.83538e-10 -9.4138e-10 -7.73091 5.47488 -0.417314 -4.95927e-10 -2.83538e-10 -9.414e-10 -2.90554 0.965183 -0.102902 -4.9594e-10 -2.83536e-10 -9.41393e-10 -10.2786 0.731801 -0.0259123 -4.95932e-10 -2.83535e-10 -9.41403e-10 -2.22167 -0.733487 0.20892 -2.03217e-16 0.0 -3.88251e-19 -0.600348 -34.6631 30.1655 -0.168447 28.2287 0.525719 -5.52466 -13.4247 -16.3338 2.03217e-16 0.0 3.88251e-19 -13.0084 4.46882 -15.7977 -0.0126737 11.0839 -0.46182 4.76266 -14.0033 15.142
0.835629 84.1343 -169.137 4.5527 -3.0335 2.4212 -8.95232 10.2098 -2.09808 7.39607 -13.2537 -0.00316549 -2.5385 7.90128 -5.78062 4.44814 -9.76461 -10.6159 -0.0 0.0 0.0 -0.0 0.0 0.0 -3.65171e-15 -1.52877e-14 4.80127e-14 89.7009 24.351 -14.8776 -11.3076 -4.85607 20.3983 -0.22845 13.1838 1.88806 -1.12662e-09 4.24642e-10 4.3936e-10 -1.94215e-09 7.32671e-10 7.72783e-10 -1.12662e-09 4.24647e-10 4.39347e-10 7.73091 5.47488 0.417314 -1.12662e-09 4.24644e-10 4.39358e-10 2.90554 0.965183 0.102902 -1.12662e-09 4.24646e-10 4.39351e-10 10.2786 0.731801 0.0259123 -1.12663e-09 4.24647e-10 4.3936e-10 2.22167 -0.733487 -0.20892 -3.75326e-15 -1.52862e-14 4.76742e-14 -89.1226 26.3722 3.03995 8.94322 -3.45044 -15.9013 0.028044 4.64581 -0.654456 -6.76431e-13 -4.00607e-10 -1.20267e-09 -6.31611e-12 -6.94818e-10 -2.08125e-09 -6.78957e-13 -4.00608e-10 -1.20265e-09 -7.73091 5.47488 -0.417314 -6.71713e-13 -4.00607e-10 -1.20268e-09 -2.90554 0.965183 -0.102902 -6.8287e-13 -4.00606e-10 -1.20267e-09 -10.2786 0.731801 -0.0259123 -6.7632e-13 -4.00607e-10 -1.20268e-09 -2.22167 -0.733487 0.20892 -2.03217e-16 0.0 -3.88251e-19 -0.742559 -34.5527 30.0642 -0.162589 27.7822 0.526685 -5.57609 -13.2832 -16.5963 2.03217e-16 0.0 3.88251e-19 -12.7512 5.07749 -15.7045 -0.0177418 10.0692 -0.450722 4.5767 -13.6645 14.8753
